<svg width="253" height="279" viewBox="0 0 253 279" fill="none" xmlns="http://www.w3.org/2000/svg">
<path d="M57 75.4654C57 110.115 57 144.765 57 180.465C86.3324 179.574 86.3324 179.574 110 164.465C121.803 149.497 123.783 127.76 124.562 109.403C124.627 107.961 124.627 107.961 124.693 106.491C124.798 104.149 124.9 101.807 125 99.4654C118.673 100.407 114.567 101.697 110 106.465C108.176 108.968 106.636 111.577 105.125 114.278C104.703 115.013 104.281 115.747 103.846 116.504C99.5905 124.002 95.7414 131.7 92 139.465C91.01 139.465 90.02 139.465 89 139.465C89 124.128 89.5055 108.794 90 93.4654C143.79 93.4654 197.58 93.4654 253 93.4654C253 108.315 253 123.165 253 138.465C252.01 138.465 251.02 138.465 250 138.465C249.648 137.766 249.296 137.066 248.934 136.345C247.299 133.109 245.65 129.881 244 126.653C243.447 125.553 242.894 124.452 242.324 123.319C236.005 109.676 236.005 109.676 225 100.465C222.504 100.231 220.108 100.094 217.609 100.051C216.905 100.032 216.2 100.013 215.474 99.9926C213.233 99.9331 210.992 99.8866 208.75 99.8404C207.227 99.8022 205.703 99.7631 204.18 99.7232C200.453 99.6274 196.727 99.5433 193 99.4654C193.061 120.892 193.138 142.319 193.236 163.746C193.281 173.695 193.32 183.644 193.346 193.593C193.369 202.263 193.403 210.934 193.449 219.605C193.473 224.196 193.491 228.788 193.498 233.379C193.504 237.701 193.524 242.022 193.554 246.344C193.563 247.93 193.567 249.516 193.565 251.102C193.563 253.269 193.58 255.434 193.601 257.6C193.608 259.418 193.608 259.418 193.615 261.273C194.04 264.798 194.87 266.651 197 269.465C200.425 271.749 203.757 272.599 207.688 273.59C208.74 273.863 208.74 273.863 209.814 274.141C211.542 274.588 213.271 275.027 215 275.465C215 276.455 215 277.445 215 278.465C185.96 278.465 156.92 278.465 127 278.465C127 277.475 127 276.485 127 275.465C128.181 275.151 129.362 274.836 130.578 274.512C132.136 274.081 133.693 273.648 135.25 273.215C136.027 273.01 136.805 272.805 137.605 272.594C142.07 271.335 145.052 270.264 148 266.465C149.435 263.596 149.141 261.131 149.158 257.923C149.163 257.243 149.168 256.564 149.173 255.864C149.189 253.576 149.197 251.288 149.205 249C149.215 247.364 149.225 245.729 149.235 244.093C149.262 239.643 149.283 235.193 149.303 230.742C149.325 226.095 149.353 221.448 149.379 216.801C149.429 207.997 149.474 199.192 149.517 190.388C149.567 180.366 149.622 170.345 149.677 160.323C149.791 139.704 149.898 119.085 150 98.4654C148.35 98.4654 146.7 98.4654 145 98.4654C145.03 99.5851 145.03 99.5851 145.061 100.727C145.241 107.788 145.378 114.848 145.466 121.911C145.513 125.542 145.577 129.17 145.679 132.8C145.777 136.308 145.831 139.814 145.854 143.323C145.878 145.302 145.949 147.281 146.02 149.259C146.025 158.105 146.025 158.105 143.069 162.029C140.805 164.078 138.557 165.802 136 167.465C135.317 167.93 134.635 168.395 133.931 168.873C132.162 170.042 130.362 171.077 128.5 172.09C127.821 172.464 127.143 172.837 126.443 173.222C103.919 185.212 79.8018 186.651 54.7852 186.563C53.1923 186.561 51.5995 186.56 50.0067 186.559C45.869 186.555 41.7313 186.545 37.5936 186.534C33.3495 186.524 29.1054 186.519 24.8613 186.514C16.5742 186.504 8.28711 186.487 0 186.465C0.393311 184.534 0.393311 184.534 1 182.465C2.70703 181.376 2.70703 181.376 4.8125 180.528C9.31118 178.488 11.7774 175.911 14 171.465C14.0538 169.521 14.0416 167.574 13.999 165.63C13.977 164.404 13.955 163.178 13.9323 161.916C13.9195 161.258 13.9067 160.6 13.8936 159.923C13.8229 155.692 13.8168 151.46 13.7997 147.229C13.7811 143.518 13.7396 139.811 13.647 136.102C13.026 110.075 13.026 110.075 17.7983 104.153C20.8787 101.223 24.2279 99.3877 28 97.4654C29.7387 96.129 31.4539 94.7604 33.125 93.3404C33.9165 92.7126 34.708 92.0848 35.5234 91.438C38.2836 89.2395 41.0187 87.0122 43.75 84.7779C44.6614 84.0328 45.5727 83.2877 46.5117 82.5201C48.5501 80.8369 50.5598 79.1279 52.5625 77.4029C55 75.4654 55 75.4654 57 75.4654Z" fill="#030303"/>
<path d="M0 0.465398C10.6853 0.371779 21.3705 0.301175 32.0562 0.258149C37.0206 0.237475 41.9847 0.209538 46.949 0.16364C98.3503 -0.298798 98.3503 -0.298798 115 7.4654C112 10.4654 109 13.4654 106 16.4654C105.456 16.187 104.912 15.9085 104.352 15.6216C101.721 14.328 99.0659 13.1298 96.375 11.9654C95.4134 11.5426 94.4517 11.1198 93.4609 10.6841C85.0879 7.73565 76.6939 7.10968 67.875 6.8404C66.8231 6.80173 65.7713 6.76305 64.6875 6.72321C62.1252 6.63003 59.5628 6.54422 57 6.4654C57.0244 7.07182 57.0489 7.67823 57.074 8.30303C57.3184 14.6457 57.4837 20.9871 57.6042 27.3333C57.6594 29.6975 57.7343 32.0613 57.8298 34.4241C58.6472 55.1733 58.6472 55.1733 54.6826 59.9241C51.8816 62.216 49.2105 63.8181 46 65.4654C44.2621 66.8242 42.5492 68.2163 40.875 69.6529C39.5408 70.7415 39.5408 70.7415 38.1797 71.8521C35.6511 73.9227 33.141 76.0147 30.6328 78.1099C29.4864 79.0638 29.4864 79.0638 28.3169 80.0369C26.7915 81.3066 25.2689 82.5798 23.7495 83.8568C23.0484 84.4392 22.3473 85.0216 21.625 85.6217C20.9985 86.1457 20.372 86.6697 19.7266 87.2095C18 88.4654 18 88.4654 15 89.4654C14.9919 88.5937 14.9838 87.7219 14.9755 86.8238C14.8974 78.5851 14.81 70.3466 14.7125 62.1081C14.6627 57.8733 14.6163 53.6384 14.5781 49.4034C14.5411 45.3119 14.4947 41.2206 14.4419 37.1293C14.4235 35.573 14.4083 34.0166 14.3967 32.4601C15.0937 19.676 15.0937 19.676 10.1953 8.66071C9.17051 8.13091 9.17051 8.13091 8.125 7.5904C7.44695 7.22173 6.76891 6.85305 6.07031 6.47321C5.38711 6.14063 4.70391 5.80805 4 5.4654C3.25492 5.09157 2.50984 4.71774 1.74219 4.33258C1.16727 4.04641 0.592344 3.76024 0 3.4654C0 2.4754 0 1.4854 0 0.465398Z" fill="#030303"/>
<path d="M130 14.4654C147.768 23.9937 160.4 41.1804 166.287 60.2877C169.188 70.2746 170 78.7918 170 89.4654C155.15 89.4654 140.3 89.4654 125 89.4654C124.752 84.371 124.505 79.2766 124.25 74.0279C123.31 57.3984 121.196 42.7714 114 27.4654C116.103 25.6718 118.207 23.8805 120.312 22.0904C121.205 21.3286 121.205 21.3286 122.115 20.5513C122.981 19.8166 122.981 19.8166 123.863 19.067C124.392 18.6166 124.921 18.1662 125.466 17.7022C126.912 16.5367 128.455 15.4954 130 14.4654Z" fill="#020202"/>
</svg>
